<?xml version="1.0" encoding="UTF-8"?>
<svg xmlns="http://www.w3.org/2000/svg" xmlns:xlink="http://www.w3.org/1999/xlink" width="32px" height="32px" viewBox="0 0 32 32" version="1.1">
<defs>
<filter id="alpha" filterUnits="objectBoundingBox" x="0%" y="0%" width="100%" height="100%">
  <feColorMatrix type="matrix" in="SourceGraphic" values="0 0 0 0 1 0 0 0 0 1 0 0 0 0 1 0 0 0 1 0"/>
</filter>
<mask id="mask0">
  <g filter="url(#alpha)">
<rect x="0" y="0" width="32" height="32" style="fill:rgb(0%,0%,0%);fill-opacity:0.992157;stroke:none;"/>
  </g>
</mask>
<clipPath id="clip1">
  <rect x="0" y="0" width="32" height="32"/>
</clipPath>
<g id="surface5" clip-path="url(#clip1)">
<path style=" stroke:none;fill-rule:evenodd;fill:rgb(43.921569%,43.921569%,94.509804%);fill-opacity:1;" d="M 31.34375 12.03125 C 31.304688 11.992188 31.253906 11.96875 31.1875 11.96875 C 27.050781 12.476562 22.917969 12.976562 18.78125 13.46875 C 14.785156 12.972656 10.785156 12.492188 6.78125 12.03125 C 6.011719 11.941406 5.242188 11.859375 4.46875 11.78125 C 3.730469 11.675781 2.980469 11.582031 2.21875 11.5 C 2.140625 11.484375 2.078125 11.453125 2.03125 11.40625 C 6.175781 10.921875 10.320312 10.441406 14.46875 9.96875 C 20.140625 10.59375 25.808594 11.261719 31.46875 11.96875 C 31.441406 12.019531 31.398438 12.039062 31.34375 12.03125 Z M 31.34375 12.03125 "/>
</g>
<mask id="mask1">
  <g filter="url(#alpha)">
<rect x="0" y="0" width="32" height="32" style="fill:rgb(0%,0%,0%);fill-opacity:0.992157;stroke:none;"/>
  </g>
</mask>
<clipPath id="clip2">
  <rect x="0" y="0" width="32" height="32"/>
</clipPath>
<g id="surface8" clip-path="url(#clip2)">
<path style=" stroke:none;fill-rule:evenodd;fill:rgb(36.470588%,36.078431%,90.196078%);fill-opacity:1;" d="M 2.03125 11.40625 C 2.078125 11.453125 2.140625 11.484375 2.21875 11.5 C 2.980469 11.582031 3.730469 11.675781 4.46875 11.78125 C 3.960938 12.90625 3.835938 14.070312 4.09375 15.28125 C 4.160156 15.628906 4.261719 15.960938 4.40625 16.28125 C 3.511719 16.171875 2.617188 16.066406 1.71875 15.96875 C 1.390625 15.667969 1.171875 15.292969 1.0625 14.84375 C 0.964844 14.199219 0.945312 13.554688 1 12.90625 C 1.070312 12.398438 1.269531 11.953125 1.59375 11.5625 C 1.738281 11.5 1.882812 11.449219 2.03125 11.40625 Z M 2.03125 11.40625 "/>
</g>
<mask id="mask2">
  <g filter="url(#alpha)">
<rect x="0" y="0" width="32" height="32" style="fill:rgb(0%,0%,0%);fill-opacity:0.996078;stroke:none;"/>
  </g>
</mask>
<clipPath id="clip3">
  <rect x="0" y="0" width="32" height="32"/>
</clipPath>
<g id="surface11" clip-path="url(#clip3)">
<path style=" stroke:none;fill-rule:evenodd;fill:rgb(36.862745%,36.862745%,91.372549%);fill-opacity:1;" d="M 6.78125 12.03125 C 10.785156 12.492188 14.785156 12.972656 18.78125 13.46875 C 18.324219 13.882812 18.066406 14.402344 18 15.03125 C 17.949219 15.417969 17.960938 15.792969 18.03125 16.15625 C 18.039062 16.40625 18.0625 16.65625 18.09375 16.90625 C 14.15625 16.464844 10.21875 16.003906 6.28125 15.53125 C 6.253906 15.144531 6.234375 14.761719 6.21875 14.375 C 6.171875 13.53125 6.359375 12.75 6.78125 12.03125 Z M 6.78125 12.03125 "/>
</g>
<mask id="mask3">
  <g filter="url(#alpha)">
<rect x="0" y="0" width="32" height="32" style="fill:rgb(0%,0%,0%);fill-opacity:0.996078;stroke:none;"/>
  </g>
</mask>
<clipPath id="clip4">
  <rect x="0" y="0" width="32" height="32"/>
</clipPath>
<g id="surface14" clip-path="url(#clip4)">
<path style=" stroke:none;fill-rule:evenodd;fill:rgb(91.372549%,91.372549%,91.372549%);fill-opacity:1;" d="M 30.65625 13.09375 C 30.53125 13.710938 30.5 14.335938 30.5625 14.96875 C 30.628906 15.480469 30.824219 15.925781 31.15625 16.3125 C 31.515625 16.394531 31.535156 16.488281 31.21875 16.59375 C 31.160156 16.554688 31.085938 16.53125 31 16.53125 C 27 17.015625 23 17.492188 19 17.96875 C 18.910156 17.929688 18.816406 17.90625 18.71875 17.90625 C 18.414062 17.632812 18.207031 17.296875 18.09375 16.90625 C 18.0625 16.65625 18.039062 16.40625 18.03125 16.15625 C 18.019531 15.480469 18.269531 14.925781 18.78125 14.5 C 22.734375 13.996094 26.695312 13.527344 30.65625 13.09375 Z M 30.65625 13.09375 "/>
</g>
<mask id="mask4">
  <g filter="url(#alpha)">
<rect x="0" y="0" width="32" height="32" style="fill:rgb(0%,0%,0%);fill-opacity:0.996078;stroke:none;"/>
  </g>
</mask>
<clipPath id="clip5">
  <rect x="0" y="0" width="32" height="32"/>
</clipPath>
<g id="surface17" clip-path="url(#clip5)">
<path style=" stroke:none;fill-rule:evenodd;fill:rgb(91.372549%,91.372549%,91.372549%);fill-opacity:1;" d="M 30.65625 17.59375 C 30.503906 18.316406 30.492188 19.046875 30.625 19.78125 C 30.710938 20.332031 30.992188 20.726562 31.46875 20.96875 C 27.3125 21.460938 23.15625 21.960938 19 22.46875 C 18.910156 22.429688 18.816406 22.40625 18.71875 22.40625 C 18.347656 22.027344 18.117188 21.566406 18.03125 21.03125 C 18.03125 20.90625 18.03125 20.78125 18.03125 20.65625 C 18.019531 19.980469 18.269531 19.425781 18.78125 19 C 22.734375 18.496094 26.695312 18.027344 30.65625 17.59375 Z M 30.65625 17.59375 "/>
</g>
<mask id="mask5">
  <g filter="url(#alpha)">
<rect x="0" y="0" width="32" height="32" style="fill:rgb(0%,0%,0%);fill-opacity:0.988235;stroke:none;"/>
  </g>
</mask>
<clipPath id="clip6">
  <rect x="0" y="0" width="32" height="32"/>
</clipPath>
<g id="surface20" clip-path="url(#clip6)">
<path style=" stroke:none;fill-rule:evenodd;fill:rgb(99.607843%,78.823529%,22.352941%);fill-opacity:1;" d="M 1.71875 20.46875 C 2.449219 20.53125 3.179688 20.613281 3.90625 20.71875 C 3.234375 21.8125 2.921875 23.011719 2.96875 24.3125 C 2.984375 24.953125 3.046875 25.589844 3.15625 26.21875 C 2.457031 26.1875 1.757812 26.125 1.0625 26.03125 C 0.9375 26.035156 0.84375 26.078125 0.78125 26.15625 C 0.628906 25.78125 0.535156 25.386719 0.5 24.96875 C 0.398438 23.890625 0.484375 22.828125 0.75 21.78125 C 0.921875 21.226562 1.246094 20.789062 1.71875 20.46875 Z M 1.71875 20.46875 "/>
</g>
</defs>
<g id="surface1">
<use xlink:href="#surface5" mask="url(#mask0)"/>
<use xlink:href="#surface8" mask="url(#mask1)"/>
<path style=" stroke:none;fill-rule:evenodd;fill:rgb(59.607843%,87.45098%,83.137255%);fill-opacity:1;" d="M 4.46875 11.78125 C 5.242188 11.859375 6.011719 11.941406 6.78125 12.03125 C 6.359375 12.75 6.171875 13.53125 6.21875 14.375 C 6.234375 14.761719 6.253906 15.144531 6.28125 15.53125 C 5.550781 15.453125 4.824219 15.367188 4.09375 15.28125 C 3.835938 14.070312 3.960938 12.90625 4.46875 11.78125 Z M 4.46875 11.78125 "/>
<use xlink:href="#surface11" mask="url(#mask2)"/>
<path style=" stroke:none;fill-rule:evenodd;fill:rgb(85.098039%,82.745098%,83.137255%);fill-opacity:1;" d="M 31.34375 12.03125 C 30.945312 12.269531 30.714844 12.621094 30.65625 13.09375 C 26.695312 13.527344 22.734375 13.996094 18.78125 14.5 C 18.269531 14.925781 18.019531 15.480469 18.03125 16.15625 C 17.960938 15.792969 17.949219 15.417969 18 15.03125 C 18.066406 14.402344 18.324219 13.882812 18.78125 13.46875 C 22.917969 12.976562 27.050781 12.476562 31.1875 11.96875 C 31.253906 11.96875 31.304688 11.992188 31.34375 12.03125 Z M 31.34375 12.03125 "/>
<use xlink:href="#surface14" mask="url(#mask3)"/>
<path style=" stroke:none;fill-rule:evenodd;fill:rgb(36.078431%,82.352941%,78.039216%);fill-opacity:1;" d="M 4.09375 15.28125 C 4.824219 15.367188 5.550781 15.453125 6.28125 15.53125 C 6.363281 15.863281 6.449219 16.199219 6.53125 16.53125 C 5.824219 16.445312 5.117188 16.359375 4.40625 16.28125 C 4.261719 15.960938 4.160156 15.628906 4.09375 15.28125 Z M 4.09375 15.28125 "/>
<path style=" stroke:none;fill-rule:evenodd;fill:rgb(35.686275%,32.54902%,84.705882%);fill-opacity:1;" d="M 6.28125 15.53125 C 10.21875 16.003906 14.15625 16.464844 18.09375 16.90625 C 18.207031 17.296875 18.414062 17.632812 18.71875 17.90625 C 18.65625 17.90625 18.59375 17.90625 18.53125 17.90625 C 17.425781 17.804688 16.320312 17.679688 15.21875 17.53125 C 14.488281 17.453125 13.761719 17.367188 13.03125 17.28125 C 10.863281 17.03125 8.699219 16.78125 6.53125 16.53125 C 6.449219 16.199219 6.363281 15.863281 6.28125 15.53125 Z M 6.28125 15.53125 "/>
<path style=" stroke:none;fill-rule:evenodd;fill:rgb(59.607843%,87.45098%,82.745098%);fill-opacity:1;" d="M 1.71875 15.96875 C 2.617188 16.066406 3.511719 16.171875 4.40625 16.28125 C 5.117188 16.359375 5.824219 16.445312 6.53125 16.53125 C 8.699219 16.78125 10.863281 17.03125 13.03125 17.28125 C 12.5 18.261719 12.335938 19.304688 12.53125 20.40625 C 8.695312 19.992188 4.863281 19.554688 1.03125 19.09375 C 0.945312 18.429688 0.953125 17.761719 1.0625 17.09375 C 1.171875 16.644531 1.390625 16.269531 1.71875 15.96875 Z M 1.71875 15.96875 "/>
<path style=" stroke:none;fill-rule:evenodd;fill:rgb(85.098039%,83.137255%,83.137255%);fill-opacity:1;" d="M 31.21875 16.59375 C 30.902344 16.851562 30.714844 17.183594 30.65625 17.59375 C 26.695312 18.027344 22.734375 18.496094 18.78125 19 C 18.269531 19.425781 18.019531 19.980469 18.03125 20.65625 C 17.902344 19.878906 18.015625 19.128906 18.375 18.40625 C 18.46875 18.230469 18.605469 18.09375 18.78125 18 C 18.683594 17.988281 18.601562 17.957031 18.53125 17.90625 C 18.59375 17.90625 18.65625 17.90625 18.71875 17.90625 C 18.816406 17.90625 18.910156 17.929688 19 17.96875 C 23 17.492188 27 17.015625 31 16.53125 C 31.085938 16.53125 31.160156 16.554688 31.21875 16.59375 Z M 31.21875 16.59375 "/>
<path style=" stroke:none;fill-rule:evenodd;fill:rgb(43.921569%,43.921569%,94.509804%);fill-opacity:1;" d="M 13.03125 17.28125 C 13.761719 17.367188 14.488281 17.453125 15.21875 17.53125 C 14.867188 18.054688 14.667969 18.640625 14.625 19.28125 C 14.59375 19.738281 14.582031 20.199219 14.59375 20.65625 C 14.050781 20.617188 13.507812 20.554688 12.96875 20.46875 C 12.816406 20.472656 12.691406 20.511719 12.59375 20.59375 C 12.539062 20.550781 12.515625 20.488281 12.53125 20.40625 C 12.335938 19.304688 12.5 18.261719 13.03125 17.28125 Z M 13.03125 17.28125 "/>
<path style=" stroke:none;fill-rule:evenodd;fill:rgb(59.607843%,87.45098%,83.137255%);fill-opacity:1;" d="M 15.21875 17.53125 C 16.320312 17.679688 17.425781 17.804688 18.53125 17.90625 C 18.601562 17.957031 18.683594 17.988281 18.78125 18 C 18.605469 18.09375 18.46875 18.230469 18.375 18.40625 C 18.015625 19.128906 17.902344 19.878906 18.03125 20.65625 C 18.03125 20.78125 18.03125 20.90625 18.03125 21.03125 C 16.902344 20.933594 15.777344 20.808594 14.65625 20.65625 C 14.636719 20.65625 14.613281 20.65625 14.59375 20.65625 C 14.582031 20.199219 14.59375 19.738281 14.625 19.28125 C 14.667969 18.640625 14.867188 18.054688 15.21875 17.53125 Z M 15.21875 17.53125 "/>
<use xlink:href="#surface17" mask="url(#mask4)"/>
<path style=" stroke:none;fill-rule:evenodd;fill:rgb(36.862745%,82.745098%,77.647059%);fill-opacity:1;" d="M 1.03125 19.09375 C 4.863281 19.554688 8.695312 19.992188 12.53125 20.40625 C 12.515625 20.488281 12.539062 20.550781 12.59375 20.59375 C 12.644531 21.015625 12.769531 21.410156 12.96875 21.78125 C 10.613281 21.507812 8.261719 21.234375 5.90625 20.96875 C 5.25 20.863281 4.585938 20.777344 3.90625 20.71875 C 3.179688 20.613281 2.449219 20.53125 1.71875 20.46875 C 1.328125 20.101562 1.097656 19.640625 1.03125 19.09375 Z M 1.03125 19.09375 "/>
<use xlink:href="#surface20" mask="url(#mask5)"/>
<path style=" stroke:none;fill-rule:evenodd;fill:rgb(35.294118%,34.901961%,86.27451%);fill-opacity:1;" d="M 14.59375 20.65625 C 14.613281 20.65625 14.636719 20.65625 14.65625 20.65625 C 14.683594 21.132812 14.789062 21.589844 14.96875 22.03125 C 14.574219 21.972656 14.179688 21.929688 13.78125 21.90625 C 13.519531 21.847656 13.25 21.804688 12.96875 21.78125 C 12.769531 21.410156 12.644531 21.015625 12.59375 20.59375 C 12.691406 20.511719 12.816406 20.472656 12.96875 20.46875 C 13.507812 20.554688 14.050781 20.617188 14.59375 20.65625 Z M 14.59375 20.65625 "/>
<path style=" stroke:none;fill-rule:evenodd;fill:rgb(96.862745%,57.647059%,11.764706%);fill-opacity:1;" d="M 3.90625 20.71875 C 4.585938 20.777344 5.25 20.863281 5.90625 20.96875 C 5.433594 21.664062 5.152344 22.433594 5.0625 23.28125 C 4.917969 24.351562 4.949219 25.414062 5.15625 26.46875 C 4.511719 26.390625 3.867188 26.328125 3.21875 26.28125 C 3.3125 26.789062 3.476562 27.269531 3.71875 27.71875 C 2.984375 27.640625 2.253906 27.523438 1.53125 27.375 C 1.144531 27.050781 0.894531 26.644531 0.78125 26.15625 C 0.84375 26.078125 0.9375 26.035156 1.0625 26.03125 C 1.757812 26.125 2.457031 26.1875 3.15625 26.21875 C 3.046875 25.589844 2.984375 24.953125 2.96875 24.3125 C 2.921875 23.011719 3.234375 21.8125 3.90625 20.71875 Z M 3.90625 20.71875 "/>
<path style=" stroke:none;fill-rule:evenodd;fill:rgb(36.470588%,82.352941%,77.647059%);fill-opacity:1;" d="M 14.65625 20.65625 C 15.777344 20.808594 16.902344 20.933594 18.03125 21.03125 C 18.117188 21.566406 18.347656 22.027344 18.71875 22.40625 C 18.65625 22.40625 18.59375 22.40625 18.53125 22.40625 C 17.613281 22.324219 16.695312 22.222656 15.78125 22.09375 C 15.511719 22.078125 15.238281 22.058594 14.96875 22.03125 C 14.789062 21.589844 14.683594 21.132812 14.65625 20.65625 Z M 14.65625 20.65625 "/>
<path style=" stroke:none;fill-rule:evenodd;fill:rgb(99.607843%,78.823529%,22.352941%);fill-opacity:1;" d="M 5.90625 20.96875 C 8.261719 21.234375 10.613281 21.507812 12.96875 21.78125 C 13.25 21.804688 13.519531 21.847656 13.78125 21.90625 C 13.308594 22.710938 13.046875 23.585938 13 24.53125 C 12.945312 25.476562 13 26.414062 13.15625 27.34375 C 10.492188 27.039062 7.824219 26.75 5.15625 26.46875 C 4.949219 25.414062 4.917969 24.351562 5.0625 23.28125 C 5.152344 22.433594 5.433594 21.664062 5.90625 20.96875 Z M 5.90625 20.96875 "/>
<path style=" stroke:none;fill-rule:evenodd;fill:rgb(85.490196%,83.137255%,83.137255%);fill-opacity:1;" d="M 31.46875 20.96875 C 30.929688 21.1875 30.5625 21.582031 30.375 22.15625 C 30.046875 23.238281 29.945312 24.339844 30.0625 25.46875 C 30.117188 26.382812 30.460938 27.164062 31.09375 27.8125 C 31.21875 27.863281 31.34375 27.917969 31.46875 27.96875 C 29.804688 28.207031 28.140625 28.417969 26.46875 28.59375 C 26.46875 28.074219 26.46875 27.550781 26.46875 27.03125 C 27.53125 26.875 28.1875 26.273438 28.4375 25.21875 C 28.617188 24.257812 28.273438 23.558594 27.40625 23.125 C 27.078125 23.03125 26.746094 23.011719 26.40625 23.0625 C 23.863281 23.363281 21.320312 23.675781 18.78125 24 C 18.378906 24.183594 18.097656 24.488281 17.9375 24.90625 C 17.546875 25.914062 17.683594 26.839844 18.34375 27.6875 C 18.535156 27.839844 18.753906 27.933594 19 27.96875 C 20.488281 27.785156 21.976562 27.617188 23.46875 27.46875 C 23.46875 27.824219 23.46875 28.175781 23.46875 28.53125 C 23.46875 28.675781 23.46875 28.824219 23.46875 28.96875 C 21.890625 29.175781 20.304688 29.34375 18.71875 29.46875 C 18.195312 29.050781 17.863281 28.507812 17.71875 27.84375 C 17.3125 26.292969 17.40625 24.769531 18 23.28125 C 18.175781 22.9375 18.4375 22.675781 18.78125 22.5 C 18.683594 22.488281 18.601562 22.457031 18.53125 22.40625 C 18.59375 22.40625 18.65625 22.40625 18.71875 22.40625 C 18.816406 22.40625 18.910156 22.429688 19 22.46875 C 23.15625 21.960938 27.3125 21.460938 31.46875 20.96875 Z M 31.46875 20.96875 "/>
<path style=" stroke:none;fill-rule:evenodd;fill:rgb(99.607843%,78.823529%,22.745098%);fill-opacity:1;" d="M 15.78125 22.09375 C 16.695312 22.222656 17.613281 22.324219 18.53125 22.40625 C 18.601562 22.457031 18.683594 22.488281 18.78125 22.5 C 18.4375 22.675781 18.175781 22.9375 18 23.28125 C 17.40625 24.769531 17.3125 26.292969 17.71875 27.84375 C 16.859375 27.765625 16.003906 27.660156 15.15625 27.53125 C 14.871094 26.039062 14.925781 24.558594 15.3125 23.09375 C 15.417969 22.734375 15.574219 22.402344 15.78125 22.09375 Z M 15.78125 22.09375 "/>
<path style=" stroke:none;fill-rule:evenodd;fill:rgb(91.372549%,91.372549%,91.372549%);fill-opacity:1;" d="M 26.46875 27.03125 C 26.46875 26.386719 26.46875 25.738281 26.46875 25.09375 C 26.769531 25.027344 27.082031 24.976562 27.40625 24.9375 C 27.734375 24.730469 27.796875 24.460938 27.59375 24.125 C 27.367188 23.972656 27.117188 23.933594 26.84375 24 C 25.425781 24.1875 24.011719 24.375 22.59375 24.5625 C 22.261719 24.859375 22.261719 25.152344 22.59375 25.4375 C 22.882812 25.46875 23.175781 25.480469 23.46875 25.46875 C 23.46875 26.136719 23.46875 26.800781 23.46875 27.46875 C 21.976562 27.617188 20.488281 27.785156 19 27.96875 C 18.753906 27.933594 18.535156 27.839844 18.34375 27.6875 C 17.683594 26.839844 17.546875 25.914062 17.9375 24.90625 C 18.097656 24.488281 18.378906 24.183594 18.78125 24 C 21.320312 23.675781 23.863281 23.363281 26.40625 23.0625 C 26.746094 23.011719 27.078125 23.03125 27.40625 23.125 C 28.273438 23.558594 28.617188 24.257812 28.4375 25.21875 C 28.1875 26.273438 27.53125 26.875 26.46875 27.03125 Z M 26.46875 27.03125 "/>
<path style=" stroke:none;fill-rule:evenodd;fill:rgb(85.490196%,82.745098%,82.745098%);fill-opacity:1;" d="M 26.46875 25.09375 C 26.082031 25.101562 25.707031 25.144531 25.34375 25.21875 C 24.703125 25.261719 24.078125 25.347656 23.46875 25.46875 C 23.175781 25.480469 22.882812 25.46875 22.59375 25.4375 C 22.261719 25.152344 22.261719 24.859375 22.59375 24.5625 C 24.011719 24.375 25.425781 24.1875 26.84375 24 C 27.117188 23.933594 27.367188 23.972656 27.59375 24.125 C 27.796875 24.460938 27.734375 24.730469 27.40625 24.9375 C 27.082031 24.976562 26.769531 25.027344 26.46875 25.09375 Z M 26.46875 25.09375 "/>
<path style=" stroke:none;fill-rule:evenodd;fill:rgb(75.686275%,15.294118%,17.647059%);fill-opacity:1;" d="M 26.46875 25.09375 C 26.46875 25.738281 26.46875 26.386719 26.46875 27.03125 C 26.46875 27.550781 26.46875 28.074219 26.46875 28.59375 C 26.480469 29.386719 26.46875 30.175781 26.4375 30.96875 C 25.960938 30.328125 25.472656 29.703125 24.96875 29.09375 C 24.464844 29.875 23.972656 30.667969 23.5 31.46875 C 23.46875 30.636719 23.457031 29.800781 23.46875 28.96875 C 23.46875 28.824219 23.46875 28.675781 23.46875 28.53125 C 24.929688 27.878906 25.554688 26.773438 25.34375 25.21875 C 25.707031 25.144531 26.082031 25.101562 26.46875 25.09375 Z M 26.46875 25.09375 "/>
<path style=" stroke:none;fill-rule:evenodd;fill:rgb(92.54902%,11.372549%,14.117647%);fill-opacity:1;" d="M 25.34375 25.21875 C 25.554688 26.773438 24.929688 27.878906 23.46875 28.53125 C 23.46875 28.175781 23.46875 27.824219 23.46875 27.46875 C 23.46875 26.800781 23.46875 26.136719 23.46875 25.46875 C 24.078125 25.347656 24.703125 25.261719 25.34375 25.21875 Z M 25.34375 25.21875 "/>
<path style=" stroke:none;fill-rule:evenodd;fill:rgb(94.509804%,35.686275%,13.72549%);fill-opacity:1;" d="M 5.15625 26.46875 C 5.273438 26.964844 5.441406 27.445312 5.65625 27.90625 C 5.007812 27.859375 4.363281 27.796875 3.71875 27.71875 C 3.476562 27.269531 3.3125 26.789062 3.21875 26.28125 C 3.867188 26.328125 4.511719 26.390625 5.15625 26.46875 Z M 5.15625 26.46875 "/>
<path style=" stroke:none;fill-rule:evenodd;fill:rgb(96.862745%,57.647059%,11.764706%);fill-opacity:1;" d="M 13.78125 21.90625 C 14.179688 21.929688 14.574219 21.972656 14.96875 22.03125 C 15.238281 22.058594 15.511719 22.078125 15.78125 22.09375 C 15.574219 22.402344 15.417969 22.734375 15.3125 23.09375 C 14.925781 24.558594 14.871094 26.039062 15.15625 27.53125 C 14.511719 27.457031 13.867188 27.394531 13.21875 27.34375 C 13.242188 27.578125 13.292969 27.808594 13.375 28.03125 C 13.527344 28.316406 13.664062 28.609375 13.78125 28.90625 C 11.0625 28.582031 8.355469 28.25 5.65625 27.90625 C 5.441406 27.445312 5.273438 26.964844 5.15625 26.46875 C 7.824219 26.75 10.492188 27.039062 13.15625 27.34375 C 13 26.414062 12.945312 25.476562 13 24.53125 C 13.046875 23.585938 13.308594 22.710938 13.78125 21.90625 Z M 13.78125 21.90625 "/>
<path style=" stroke:none;fill-rule:evenodd;fill:rgb(94.509804%,35.686275%,13.72549%);fill-opacity:1;" d="M 15.15625 27.53125 C 15.292969 28.085938 15.5 28.605469 15.78125 29.09375 C 15.113281 29.039062 14.445312 28.976562 13.78125 28.90625 C 13.664062 28.609375 13.527344 28.316406 13.375 28.03125 C 13.292969 27.808594 13.242188 27.578125 13.21875 27.34375 C 13.867188 27.394531 14.511719 27.457031 15.15625 27.53125 Z M 15.15625 27.53125 "/>
<path style=" stroke:none;fill-rule:evenodd;fill:rgb(96.862745%,58.039216%,12.156863%);fill-opacity:1;" d="M 15.15625 27.53125 C 16.003906 27.660156 16.859375 27.765625 17.71875 27.84375 C 17.863281 28.507812 18.195312 29.050781 18.71875 29.46875 C 17.726562 29.367188 16.75 29.242188 15.78125 29.09375 C 15.5 28.605469 15.292969 28.085938 15.15625 27.53125 Z M 15.15625 27.53125 "/>
</g>
</svg>
